<svg viewBox="0 0 25 21" fill="none" xmlns="http://www.w3.org/2000/svg">
<path
    d="M9.74411 19.2677C9.62811 19.1547 9.13211 18.728 8.72411 18.3305C6.15811 16.0003 1.95811 9.92136 0.676112 6.73967C0.470112 6.25648 0.0341121 5.03485 0.0061121 4.38215C0.0061121 3.75672 0.150112 3.16052 0.442112 2.5916C0.850112 1.88239 1.49211 1.31347 2.25011 1.00173C2.77611 0.801046 4.35011 0.489307 4.37811 0.489307C6.10011 0.177569 8.89811 0.0061121 11.9901 0.0061121C14.9361 0.0061121 17.6201 0.177568 19.3681 0.432805C19.3961 0.46203 21.3521 0.773769 22.0221 1.11473C23.2461 1.74016 24.0061 2.96179 24.0061 4.26914V4.38215C23.9761 5.23358 23.2161 7.02413 23.1881 7.02413C21.9041 10.0344 17.9101 15.973 15.2561 18.3597C15.2561 18.3597 14.5741 19.0319 14.1481 19.3242C13.5361 19.7801 12.7781 20.0061 12.0201 20.0061C11.1741 20.0061 10.3861 19.7509 9.74411 19.2677Z"
  />
</svg>
