<svg width="6" height="10" viewBox="0 0 6 10" fill="none" xmlns="http://www.w3.org/2000/svg">
<path d="M7.23131e-05 8.92003V1.47336C-0.000697752 1.34095 0.0379836 1.2113 0.111185 1.10095C0.184385 0.990607 0.288789 0.904559 0.411085 0.853782C0.533381 0.803004 0.668029 0.789796 0.797861 0.815842C0.927693 0.841889 1.04683 0.906009 1.14007 1.00003L4.86008 4.7267C4.98425 4.8516 5.05395 5.02057 5.05395 5.1967C5.05395 5.37282 4.98425 5.54179 4.86008 5.6667L1.14007 9.39336C1.04683 9.48738 0.927693 9.5515 0.797861 9.57755C0.668029 9.60359 0.533381 9.59039 0.411085 9.53961C0.288789 9.48883 0.184385 9.40278 0.111185 9.29244C0.0379836 9.18209 -0.000697752 9.05244 7.23131e-05 8.92003Z" fill="#4A368C"/>
</svg>
